<svg xmlns="http://www.w3.org/2000/svg" xmlns:xlink="http://www.w3.org/1999/xlink" version="1.1" x="0px" y="0px" viewBox="0 0 511.996 511.996" style="enable-background:new 0 0 511.996 511.996;" xml:space="preserve" width="20px" height="20px">
<g>
	<path d="M509.069,248.925l-80-80c-3.905-3.904-10.237-3.904-14.143,0c-3.905,3.905-3.905,10.237,0,14.143l62.929,62.929H265.998   V34.138l62.929,62.929c3.906,3.905,10.237,3.905,14.143,0c3.905-3.905,3.905-10.237,0-14.143l-80-80   c-3.864-3.878-10.138-3.89-14.043-0.09c-0.032,0.032-0.068,0.058-0.1,0.09l-80,80c-3.905,3.905-3.905,10.237,0,14.143   c3.905,3.904,10.237,3.904,14.143,0l62.929-62.929v211.857H34.14l62.929-62.929c3.905-3.905,3.905-10.237,0-14.143   c-3.905-3.904-10.237-3.904-14.143,0C66.241,185.612,3.406,248.44,2.835,249.026c-3.865,3.974-3.702,10.24,0.092,14.041l80,80   c3.906,3.905,10.237,3.905,14.143,0c3.905-3.905,3.905-10.237,0-14.143L34.14,265.996h211.858v211.857l-62.929-62.929   c-3.905-3.904-10.237-3.904-14.143,0c-3.905,3.905-3.905,10.237,0,14.143c19.257,19.255,79.426,79.432,80.102,80.092   c1.921,1.87,4.493,2.837,6.97,2.837c2.702,0,5.292-1.143,7.071-2.929l80-80c3.905-3.905,3.905-10.237,0-14.143   c-3.905-3.904-10.237-3.904-14.143,0l-62.929,62.929V265.996h211.858l-62.929,62.929c-3.905,3.905-3.905,10.237,0,14.143   c3.906,3.905,10.237,3.905,14.143,0l80-80C512.901,259.228,513.022,252.885,509.069,248.925z"/>
</g>
</svg>
